<?xml version="1.0" encoding="UTF-8"?>
<!DOCTYPE svg PUBLIC "-//W3C//DTD SVG 1.1//EN" "http://www.w3.org/Graphics/SVG/1.1/DTD/svg11.dtd">
<svg xmlns="http://www.w3.org/2000/svg" version="1.1" width="1024px" height="1024px" style="shape-rendering:geometricPrecision; text-rendering:geometricPrecision; image-rendering:optimizeQuality; fill-rule:evenodd; clip-rule:evenodd" xmlns:xlink="http://www.w3.org/1999/xlink">
<g><path style="opacity:1" fill="#fcfcfb" d="M -0.5,-0.5 C 340.833,-0.5 682.167,-0.5 1023.5,-0.5C 1023.5,335.5 1023.5,671.5 1023.5,1007.5C 1018.17,1007.5 1012.83,1007.5 1007.5,1007.5C 1002.17,1007.5 996.833,1007.5 991.5,1007.5C 986.167,1007.5 980.833,1007.5 975.5,1007.5C 970.167,1007.5 964.833,1007.5 959.5,1007.5C 954.167,1007.5 948.833,1007.5 943.5,1007.5C 943.5,1012.83 943.5,1018.17 943.5,1023.5C 628.833,1023.5 314.167,1023.5 -0.5,1023.5C -0.5,682.167 -0.5,340.833 -0.5,-0.5 Z"/></g>
<g><path style="opacity:1" fill="#02444e" d="M 256.5,291.5 C 276.663,306.044 295.496,322.378 313,340.5C 319.113,347.725 323.946,355.725 327.5,364.5C 323.194,364.899 319.36,366.566 316,369.5C 314.255,375.441 314.255,381.441 316,387.5C 325.256,405.679 334.256,424.013 343,442.5C 346.814,448.929 350.814,455.263 355,461.5C 355.494,459.866 355.66,458.199 355.5,456.5C 357.035,462.151 358.368,467.985 359.5,474C 359.472,475.07 359.139,475.903 358.5,476.5C 320.347,441.84 286.181,403.507 256,361.5C 231.542,325.425 212.042,286.925 197.5,246C 197.833,245.5 198.167,245 198.5,244.5C 212.609,256.567 226.609,268.734 240.5,281C 245.691,284.759 251.024,288.259 256.5,291.5 Z"/></g>
<g><path style="opacity:1" fill="#01434d" d="M 806.5,290.5 C 786.601,306.889 767.101,323.889 748,341.5C 743.391,349.107 738.391,356.441 733,363.5C 732.517,364.448 732.351,365.448 732.5,366.5C 726.506,375.029 722.006,384.362 719,394.5C 714,416.167 709,437.833 704,459.5C 703.19,463.358 703.357,467.024 704.5,470.5C 703.434,472.701 702.767,475.035 702.5,477.5C 687.323,537.515 667.823,596.182 644,653.5C 635.258,670.274 625.592,686.607 615,702.5C 604.013,716.16 590.68,726.826 575,734.5C 573.395,733.899 572.062,732.899 571,731.5C 567.667,726.833 564.333,722.167 561,717.5C 554.731,706.628 548.731,695.628 543,684.5C 538.333,673.167 533.667,661.833 529,650.5C 525.918,639.587 522.252,628.92 518,618.5C 514.882,605.417 511.882,592.417 509,579.5C 524.721,596.554 541.054,612.887 558,628.5C 572.993,577.174 587.327,525.84 601,474.5C 609.006,447.163 617.339,419.83 626,392.5C 631.678,379.454 637.344,366.454 643,353.5C 658.735,328.78 680.902,312.946 709.5,306C 736.813,299.793 764.48,295.793 792.5,294C 797.359,293.243 802.026,292.077 806.5,290.5 Z"/></g>
<g><path style="opacity:1" fill="#02a376" d="M 702.5,477.5 C 702.767,475.035 703.434,472.701 704.5,470.5C 717.13,444.472 729.297,418.139 741,391.5C 743.087,383.177 743.42,374.844 742,366.5C 738.839,363.914 735.672,363.914 732.5,366.5C 732.351,365.448 732.517,364.448 733,363.5C 738.391,356.441 743.391,349.107 748,341.5C 767.101,323.889 786.601,306.889 806.5,290.5C 825.762,277.346 843.762,262.512 860.5,246C 861.877,244.759 863.21,244.592 864.5,245.5C 846.741,290.351 824.241,332.684 797,372.5C 768.795,410.535 737.295,445.535 702.5,477.5 Z"/></g>
<g><path style="opacity:1" fill="#021a0f" d="M 327.5,364.5 C 331.784,373.95 335.617,383.617 339,393.5C 344.14,414.724 349.64,435.724 355.5,456.5C 355.66,458.199 355.494,459.866 355,461.5C 350.814,455.263 346.814,448.929 343,442.5C 334.256,424.013 325.256,405.679 316,387.5C 314.255,381.441 314.255,375.441 316,369.5C 319.36,366.566 323.194,364.899 327.5,364.5 Z"/></g>
<g><path style="opacity:1" fill="#021a11" d="M 704.5,470.5 C 703.357,467.024 703.19,463.358 704,459.5C 709,437.833 714,416.167 719,394.5C 722.006,384.362 726.506,375.029 732.5,366.5C 735.672,363.914 738.839,363.914 742,366.5C 743.42,374.844 743.087,383.177 741,391.5C 729.297,418.139 717.13,444.472 704.5,470.5 Z"/></g>
<g><path style="opacity:1" fill="#05f99b" d="M 256.5,291.5 C 281.708,295.768 307.042,299.268 332.5,302C 355.965,306.59 377.632,315.257 397.5,328C 411.316,340.773 421.816,355.939 429,373.5C 441.368,406.947 452.368,440.947 462,475.5C 476.241,531.892 491.908,587.892 509,643.5C 519.36,671.921 532.027,699.254 547,725.5C 551.348,732.193 556.182,738.526 561.5,744.5C 528.566,753.18 498.566,747.347 471.5,727C 451.503,710.516 435.67,690.682 424,667.5C 414.897,649.813 406.897,631.813 400,613.5C 384.555,568.464 370.722,522.797 358.5,476.5C 359.139,475.903 359.472,475.07 359.5,474C 358.368,467.985 357.035,462.151 355.5,456.5C 349.64,435.724 344.14,414.724 339,393.5C 335.617,383.617 331.784,373.95 327.5,364.5C 323.946,355.725 319.113,347.725 313,340.5C 295.496,322.378 276.663,306.044 256.5,291.5 Z"/></g>
<g><path style="opacity:1" fill="#feff65" d="M 959.5,1007.5 C 959.5,1012.83 959.5,1018.17 959.5,1023.5C 954.167,1023.5 948.833,1023.5 943.5,1023.5C 943.5,1018.17 943.5,1012.83 943.5,1007.5C 948.833,1007.5 954.167,1007.5 959.5,1007.5 Z"/></g>
<g><path style="opacity:1" fill="#42fffe" d="M 959.5,1007.5 C 964.833,1007.5 970.167,1007.5 975.5,1007.5C 975.5,1012.83 975.5,1018.17 975.5,1023.5C 970.167,1023.5 964.833,1023.5 959.5,1023.5C 959.5,1018.17 959.5,1012.83 959.5,1007.5 Z"/></g>
<g><path style="opacity:1" fill="#51da4b" d="M 975.5,1007.5 C 980.833,1007.5 986.167,1007.5 991.5,1007.5C 991.5,1012.83 991.5,1018.17 991.5,1023.5C 986.167,1023.5 980.833,1023.5 975.5,1023.5C 975.5,1018.17 975.5,1012.83 975.5,1007.5 Z"/></g>
<g><path style="opacity:1" fill="#fe6e3b" d="M 991.5,1007.5 C 996.833,1007.5 1002.17,1007.5 1007.5,1007.5C 1007.5,1012.83 1007.5,1018.17 1007.5,1023.5C 1002.17,1023.5 996.833,1023.5 991.5,1023.5C 991.5,1018.17 991.5,1012.83 991.5,1007.5 Z"/></g>
<g><path style="opacity:1" fill="#3c45ff" d="M 1007.5,1007.5 C 1012.83,1007.5 1018.17,1007.5 1023.5,1007.5C 1023.5,1012.83 1023.5,1018.17 1023.5,1023.5C 1018.17,1023.5 1012.83,1023.5 1007.5,1023.5C 1007.5,1018.17 1007.5,1012.83 1007.5,1007.5 Z"/></g>
</svg>
